<svg xmlns="http://www.w3.org/2000/svg" width="48" height="48" viewBox="0 0 48 48">
  <circle id="Ellipse_8" data-name="Ellipse 8" cx="24" cy="24" r="24" fill="#224c52"/>
  <g id="leaguepedia-icon" transform="translate(11.184 7.003)">
    <path id="Tracé_7" data-name="Tracé 7" d="M5.342,29.362C6.854,28.7,6.632,27.4,6.607,26.149c-.017-.82,0-1.649,0-2.573h4.248c0-.932.026-1.761-.017-2.581a.727.727,0,0,0-.427-.53,4.279,4.279,0,0,1-3.239-3.538.627.627,0,0,0-.786-.607.286.286,0,0,0-.085,0c-1.88.427-2.709-.53-3.325-2.2C2.137,11.9,1.043,9.782,0,7.474H5.162C5.008,6.295,5.017,5.184,3.872,4.5H21.614c-.393.863-.82,1.812-1.333,2.931h5.35c-.12.342-.2.59-.3.829-1.043,2.427-2.111,4.854-3.12,7.29-.248.6-.573.855-1.2.761a2.516,2.516,0,0,0-.359,0c-.658.009-1.444-.205-1.923.085-.427.265-.5,1.094-.761,1.667A3.712,3.712,0,0,1,15.58,20.3a.913.913,0,0,0-.778,1.137c.051.675.009,1.35.009,2.137h4.256c0,1.231.06,2.35-.017,3.47a1.738,1.738,0,0,0,.949,1.9,3.606,3.606,0,0,1,.5.419ZM7.307,5.919c.7,3.513,1.385,7.017,2.1,10.5a3.1,3.1,0,0,0,2.564,2.538c.658.154.991.077,1.273-.615,1.581-3.88,3.222-7.735,4.846-11.606.094-.231.154-.479.256-.82Zm.855,22.067c1.555,0,3.008,0,4.461-.009a.588.588,0,0,0,.4-.137c.769-.88,1.513-1.769,2.376-2.786H8.162ZM20.059,9.1c-.393,1.872-.786,3.684-1.2,5.641a8.3,8.3,0,0,0,1.239-.017c.316-.051.795-.128.9-.333.795-1.718,1.513-3.47,2.29-5.29ZM6.607,14.628c-.342-1.889-.667-3.718-.991-5.53H2.521c-.009.111-.034.171-.009.222q.974,2.154,1.966,4.29C5.051,14.867,5.051,14.867,6.607,14.628Zm5.188,8.666c1.222.085,1.581-.342,1.932-2.239H11.794Z" fill="#fff"/>
  </g>
</svg>