<svg xmlns="http://www.w3.org/2000/svg" width="48" height="48" viewBox="0 0 48 48">
  <circle id="Ellipse_6" data-name="Ellipse 6" cx="24" cy="24" r="24" fill="#224c52"/>
  <path id="linkedin-icon-1" d="M0,7.7a2.533,2.533,0,0,1,.823-1.94A3.02,3.02,0,0,1,2.964,5a2.93,2.93,0,0,1,2.093.753A2.653,2.653,0,0,1,5.88,7.776a2.477,2.477,0,0,1-.8,1.882,3.026,3.026,0,0,1-2.164.776H2.893A2.878,2.878,0,0,1,.8,9.657,2.607,2.607,0,0,1,0,7.7ZM.306,28.286V12.574H5.527V28.286Zm8.115,0h5.222V19.513A3.062,3.062,0,0,1,14.83,16.89a2.556,2.556,0,0,1,1.682-.553q2.634,0,2.634,3.552v8.4h5.222V19.277A7.57,7.57,0,0,0,22.721,14a5.617,5.617,0,0,0-4.351-1.8,5.338,5.338,0,0,0-4.728,2.611v.047h-.024l.024-.047V12.574H8.421q.047.753.047,4.681T8.421,28.286Z" transform="translate(12.448 6.503)" fill="#fff"/>
</svg>