<svg xmlns="http://www.w3.org/2000/svg" width="48" height="48" viewBox="0 0 48 48">
  <circle id="Ellipse_9" data-name="Ellipse 9" cx="24" cy="24" r="24" fill="#224c52"/>
  <path id="Tracé_5" data-name="Tracé 5" d="M21.583-11.052c-.962.748-2.234,1.7-6.617,4.886C14.094-5.53,12.534-4.108,11-4.121,9.475-4.112,7.945-5.5,7.038-6.166,2.655-9.35,1.379-10.3.417-11.047a.257.257,0,0,0-.417.2v8.783A2.063,2.063,0,0,0,2.062,0H19.937A2.063,2.063,0,0,0,22-2.062V-10.85A.259.259,0,0,0,21.583-11.052ZM11-5.5c1,.017,2.432-1.255,3.154-1.779,5.7-4.138,6.136-4.5,7.451-5.53a1.028,1.028,0,0,0,.4-.812v-.816A2.063,2.063,0,0,0,19.937-16.5H2.062A2.063,2.063,0,0,0,0-14.437v.816a1.035,1.035,0,0,0,.4.812c1.315,1.027,1.749,1.392,7.451,5.53C8.568-6.755,10-5.483,11-5.5Z" transform="translate(13 32.184)" fill="#fff"/>
</svg>